<?xml version="1.0" encoding="utf-8"?>
<!-- Generator: Adobe Illustrator 28.0.0, SVG Export Plug-In . SVG Version: 6.00 Build 0)  -->
<svg version="1.1" id="Livello_1" xmlns="http://www.w3.org/2000/svg" xmlns:xlink="http://www.w3.org/1999/xlink" x="0px" y="0px"
	 viewBox="0 0 490.6 133.8" style="enable-background:new 0 0 490.6 133.8;" xml:space="preserve">
<style type="text/css">
	.st0{enable-background:new    ;}
	.st1{fill:#D31216;}
	.st2{fill:none;stroke:#D31216;stroke-miterlimit:10;}
	.st3{fill:#E2C703;}
	.st4{fill:none;}
	.st5{fill:none;stroke:#D31216;stroke-width:0.4758;stroke-miterlimit:10;}
</style>
<g>
	<g id="XMLID_00000052080370145227640060000005574112809378997166_">
		<g class="st0">
			<path class="st1" d="M161.1,8.2v49.4h-5V18.1l-19.4,33.3h-2.5l-19.4-33v39.3h-5V8.2h4.3l21.5,36.6l21.3-36.6
				C156.9,8.2,161.1,8.2,161.1,8.2z"/>
			<path class="st1" d="M177.2,8.2h20.1c15.8,0,26.5,10.2,26.5,24.7s-10.7,24.7-26.5,24.7h-20.1V8.2z M197,53.1
				c13.1,0,21.6-8.3,21.6-20.2s-8.5-20.2-21.6-20.2h-14.6v40.4H197z"/>
			<path class="st1" d="M286.8,8.2v49.4h-5V18.1l-19.4,33.3h-2.5l-19.4-33v39.3h-5V8.2h4.3l21.5,36.6l21.3-36.6
				C282.6,8.2,286.8,8.2,286.8,8.2z"/>
		</g>
		<g class="st0">
			<path class="st2" d="M161.1,8.2v49.4h-5V18.1l-19.4,33.3h-2.5l-19.4-33v39.3h-5V8.2h4.3l21.5,36.6l21.3-36.6
				C156.9,8.2,161.1,8.2,161.1,8.2z"/>
			<path class="st2" d="M177.2,8.2h20.1c15.8,0,26.5,10.2,26.5,24.7s-10.7,24.7-26.5,24.7h-20.1V8.2z M197,53.1
				c13.1,0,21.6-8.3,21.6-20.2s-8.5-20.2-21.6-20.2h-14.6v40.4H197z"/>
			<path class="st2" d="M286.8,8.2v49.4h-5V18.1l-19.4,33.3h-2.5l-19.4-33v39.3h-5V8.2h4.3l21.5,36.6l21.3-36.6
				C282.6,8.2,286.8,8.2,286.8,8.2z"/>
		</g>
		<g class="st0">
			<path class="st3" d="M350.8,53.1v4.5h-34.7V54l20.5-20.1c5.6-5.5,6.6-8.8,6.6-12.2c0-5.7-4-9.2-11.6-9.2
				c-5.8,0-10.2,1.8-13.5,5.5l-3.6-3.1c3.8-4.5,10-7.1,17.5-7.1c10,0,16.4,5.1,16.4,13.3c0,4.7-1.5,9-8.1,15.5l-16.8,16.5H350.8z"/>
			<path class="st3" d="M356.9,33c0-15.7,8.3-25.1,19.7-25.1s19.8,9.4,19.8,25.1s-8.3,25.1-19.8,25.1S356.9,48.7,356.9,33z
				 M391.1,33c0-13.2-5.9-20.5-14.5-20.5S362,19.8,362,33s5.9,20.5,14.5,20.5S391.1,46.2,391.1,33z"/>
		</g>
		<g class="st0">
			<path class="st1" d="M437.6,53.1v4.5h-34.7V54l20.5-20.1c5.6-5.5,6.6-8.8,6.6-12.2c0-5.7-4-9.2-11.6-9.2
				c-5.8,0-10.2,1.8-13.5,5.5l-3.6-3.1c3.8-4.5,10-7.1,17.5-7.1c10,0,16.4,5.1,16.4,13.3c0,4.7-1.5,9-8.1,15.5l-16.8,16.5H437.6z"/>
			<path class="st1" d="M484.3,44.7h-9.9v13h-5.1v-13h-27.9V41l26.2-32.8h5.6l-25.3,31.9h21.5V28.7h4.9v11.4h9.9L484.3,44.7
				L484.3,44.7z"/>
		</g>
		<g class="st0">
			<path class="st2" d="M437.6,53.1v4.5h-34.7V54l20.5-20.1c5.6-5.5,6.6-8.8,6.6-12.2c0-5.7-4-9.2-11.6-9.2
				c-5.8,0-10.2,1.8-13.5,5.5l-3.6-3.1c3.8-4.5,10-7.1,17.5-7.1c10,0,16.4,5.1,16.4,13.3c0,4.7-1.5,9-8.1,15.5l-16.8,16.5H437.6z"/>
			<path class="st2" d="M484.3,44.7h-9.9v13h-5.1v-13h-27.9V41l26.2-32.8h5.6l-25.3,31.9h21.5V28.7h4.9v11.4h9.9L484.3,44.7
				L484.3,44.7z"/>
		</g>
	</g>
	<rect x="111.5" y="69.6" class="st4" width="379.2" height="59.9"/>
	<g class="st0">
		<path class="st1" d="M125.8,87.9v1.7h-13.3v-1.4l7.9-7.7c2.1-2.1,2.5-3.4,2.5-4.7c0-2.2-1.5-3.5-4.4-3.5c-2.2,0-3.9,0.7-5.2,2.1
			l-1.4-1.2c1.5-1.7,3.8-2.7,6.7-2.7c3.8,0,6.3,1.9,6.3,5.1c0,1.8-0.6,3.4-3.1,5.9l-6.4,6.3L125.8,87.9L125.8,87.9z"/>
		<path class="st1" d="M141,84.1c0,3.2-2.2,5.7-6.9,5.7c-2.7,0-5.3-0.9-6.8-2.4l0.9-1.5c1.2,1.3,3.4,2.2,5.8,2.2
			c3.2,0,4.9-1.6,4.9-3.9c0-2.4-1.5-3.9-6.3-3.9h-4l1-9.5H140v1.7h-8.6l-0.6,6h2.4C138.9,78.5,141,80.8,141,84.1z"/>
	</g>
	<g class="st0">
		<path class="st5" d="M125.8,87.9v1.7h-13.3v-1.4l7.9-7.7c2.1-2.1,2.5-3.4,2.5-4.7c0-2.2-1.5-3.5-4.4-3.5c-2.2,0-3.9,0.7-5.2,2.1
			l-1.4-1.2c1.5-1.7,3.8-2.7,6.7-2.7c3.8,0,6.3,1.9,6.3,5.1c0,1.8-0.6,3.4-3.1,5.9l-6.4,6.3L125.8,87.9L125.8,87.9z"/>
		<path class="st5" d="M141,84.1c0,3.2-2.2,5.7-6.9,5.7c-2.7,0-5.3-0.9-6.8-2.4l0.9-1.5c1.2,1.3,3.4,2.2,5.8,2.2
			c3.2,0,4.9-1.6,4.9-3.9c0-2.4-1.5-3.9-6.3-3.9h-4l1-9.5H140v1.7h-8.6l-0.6,6h2.4C138.9,78.5,141,80.8,141,84.1z"/>
	</g>
	<g class="st0">
		<path class="st1" d="M150.7,80.1c-0.5,0.5-1.3,0.7-2,0.7c-1.8,0-2.8-1-2.8-2.8v-5.7h-1.7v-1.1h1.7v-2.1h1.3v2.1h2.9v1.1h-2.9V78
			c0,1.1,0.6,1.7,1.6,1.7c0.5,0,1-0.2,1.4-0.5L150.7,80.1z"/>
		<path class="st1" d="M161.8,75.2v5.5h-1.3v-5.4c0-2-1-3-2.8-3c-2,0-3.3,1.3-3.3,3.4v5h-1.3V67.3h1.3v5.5c0.7-1.1,1.9-1.7,3.5-1.7
			C160.2,71.1,161.8,72.5,161.8,75.2z"/>
	</g>
	<g class="st0">
		<path class="st5" d="M150.7,80.1c-0.5,0.5-1.3,0.7-2,0.7c-1.8,0-2.8-1-2.8-2.8v-5.7h-1.7v-1.1h1.7v-2.1h1.3v2.1h2.9v1.1h-2.9V78
			c0,1.1,0.6,1.7,1.6,1.7c0.5,0,1-0.2,1.4-0.5L150.7,80.1z"/>
		<path class="st5" d="M161.8,75.2v5.5h-1.3v-5.4c0-2-1-3-2.8-3c-2,0-3.3,1.3-3.3,3.4v5h-1.3V67.3h1.3v5.5c0.7-1.1,1.9-1.7,3.5-1.7
			C160.2,71.1,161.8,72.5,161.8,75.2z"/>
	</g>
	<g class="st0">
		<path class="st1" d="M173.2,80.2c0-5.5,4.2-9.6,9.9-9.6c2.8,0,5.2,0.9,6.9,2.8l-1.3,1.3c-1.5-1.6-3.4-2.2-5.6-2.2
			c-4.6,0-8,3.3-8,7.8s3.4,7.8,8,7.8c2.2,0,4-0.7,5.6-2.3l1.3,1.3c-1.7,1.8-4.2,2.8-6.9,2.8C177.4,89.8,173.2,85.8,173.2,80.2z"/>
		<path class="st1" d="M191.9,82.6c0-4.2,3.1-7.2,7.2-7.2c4.2,0,7.2,3,7.2,7.2s-3,7.2-7.2,7.2C194.9,89.8,191.9,86.8,191.9,82.6z
			 M204.4,82.6c0-3.3-2.2-5.5-5.3-5.5c-3,0-5.3,2.2-5.3,5.5s2.3,5.5,5.3,5.5C202.1,88.1,204.4,85.9,204.4,82.6z"/>
		<path class="st1" d="M223.3,81.4v8.2h-1.9v-8c0-3-1.6-4.5-4.3-4.5c-3.1,0-5,1.9-5,5.1v7.5h-1.9V75.5h1.8v2.6
			c1-1.7,2.9-2.7,5.4-2.7C220.9,75.4,223.3,77.4,223.3,81.4z"/>
		<path class="st1" d="M230.7,73.8v1.7h4.4v1.6h-4.3v12.6h-1.9V77.1h-2.5v-1.6h2.5v-1.8c0-2.5,1.5-4.2,4.3-4.2
			c1.1,0,2.1,0.3,2.8,0.9l-0.6,1.4c-0.5-0.5-1.3-0.7-2.1-0.7C231.6,71.1,230.7,72,230.7,73.8z"/>
		<path class="st1" d="M249.8,83.2h-11.9c0.2,3,2.5,4.9,5.6,4.9c1.7,0,3.3-0.6,4.3-1.9l1.1,1.2c-1.3,1.5-3.2,2.3-5.5,2.3
			c-4.4,0-7.5-3-7.5-7.2s2.9-7.2,6.9-7.2s6.9,2.9,6.9,7.2C249.8,82.7,249.8,82.9,249.8,83.2z M237.9,81.7H248
			c-0.2-2.8-2.3-4.7-5-4.7C240.2,77,238.1,79,237.9,81.7z"/>
		<path class="st1" d="M260.9,75.4v1.9c-0.2,0-0.3,0-0.5,0c-3,0-4.8,1.9-4.8,5.2v7.2h-1.9V75.5h1.8v2.8
			C256.5,76.4,258.3,75.4,260.9,75.4z"/>
		<path class="st1" d="M276.6,83.2h-11.9c0.2,3,2.5,4.9,5.6,4.9c1.7,0,3.3-0.6,4.3-1.9l1.1,1.2c-1.3,1.5-3.2,2.3-5.5,2.3
			c-4.4,0-7.5-3-7.5-7.2s2.9-7.2,6.9-7.2s6.9,2.9,6.9,7.2C276.6,82.7,276.6,82.9,276.6,83.2z M264.7,81.7h10.1
			c-0.2-2.8-2.3-4.7-5-4.7C267,77,264.9,79,264.7,81.7z"/>
		<path class="st1" d="M293.6,81.4v8.2h-1.9v-8c0-3-1.6-4.5-4.3-4.5c-3.1,0-5,1.9-5,5.1v7.5h-1.9V75.5h1.8v2.6
			c1-1.7,2.9-2.7,5.4-2.7C291.2,75.4,293.6,77.4,293.6,81.4z"/>
		<path class="st1" d="M297.4,82.6c0-4.2,3.1-7.2,7.3-7.2c2.4,0,4.4,0.9,5.6,2.8l-1.4,1c-1-1.4-2.5-2.1-4.1-2.1
			c-3.1,0-5.4,2.2-5.4,5.5s2.3,5.5,5.4,5.5c1.6,0,3.2-0.6,4.1-2.1l1.4,1c-1.1,1.8-3.2,2.8-5.6,2.8C300.5,89.8,297.4,86.8,297.4,82.6
			z"/>
		<path class="st1" d="M326.2,83.2h-11.9c0.2,3,2.5,4.9,5.6,4.9c1.7,0,3.3-0.6,4.3-1.9l1.1,1.2c-1.3,1.5-3.2,2.3-5.5,2.3
			c-4.4,0-7.5-3-7.5-7.2s2.9-7.2,6.9-7.2s6.9,2.9,6.9,7.2C326.2,82.7,326.2,82.9,326.2,83.2z M314.3,81.7h10.1
			c-0.2-2.8-2.3-4.7-5-4.7C316.6,77,314.5,79,314.3,81.7z"/>
		<path class="st1" d="M335.8,82.6c0-4.2,3.1-7.2,7.2-7.2c4.2,0,7.2,3,7.2,7.2s-3,7.2-7.2,7.2C338.8,89.8,335.8,86.8,335.8,82.6z
			 M348.2,82.6c0-3.3-2.2-5.5-5.3-5.5c-3,0-5.3,2.2-5.3,5.5s2.3,5.5,5.3,5.5C346,88.1,348.2,85.9,348.2,82.6z"/>
		<path class="st1" d="M367.2,81.4v8.2h-1.9v-8c0-3-1.6-4.5-4.3-4.5c-3,0-5,1.9-5,5.1v7.5h-1.9V75.5h1.8v2.6c1-1.7,2.9-2.7,5.4-2.7
			C364.8,75.4,367.2,77.4,367.2,81.4z"/>
	</g>
	<g class="st0">
		<path class="st5" d="M173.2,80.2c0-5.5,4.2-9.6,9.9-9.6c2.8,0,5.2,0.9,6.9,2.8l-1.3,1.3c-1.5-1.6-3.4-2.2-5.6-2.2
			c-4.6,0-8,3.3-8,7.8s3.4,7.8,8,7.8c2.2,0,4-0.7,5.6-2.3l1.3,1.3c-1.7,1.8-4.2,2.8-6.9,2.8C177.4,89.8,173.2,85.8,173.2,80.2z"/>
		<path class="st5" d="M191.9,82.6c0-4.2,3.1-7.2,7.2-7.2c4.2,0,7.2,3,7.2,7.2s-3,7.2-7.2,7.2C194.9,89.8,191.9,86.8,191.9,82.6z
			 M204.4,82.6c0-3.3-2.2-5.5-5.3-5.5c-3,0-5.3,2.2-5.3,5.5s2.3,5.5,5.3,5.5C202.1,88.1,204.4,85.9,204.4,82.6z"/>
		<path class="st5" d="M223.3,81.4v8.2h-1.9v-8c0-3-1.6-4.5-4.3-4.5c-3.1,0-5,1.9-5,5.1v7.5h-1.9V75.5h1.8v2.6
			c1-1.7,2.9-2.7,5.4-2.7C220.9,75.4,223.3,77.4,223.3,81.4z"/>
		<path class="st5" d="M230.7,73.8v1.7h4.4v1.6h-4.3v12.6h-1.9V77.1h-2.5v-1.6h2.5v-1.8c0-2.5,1.5-4.2,4.3-4.2
			c1.1,0,2.1,0.3,2.8,0.9l-0.6,1.4c-0.5-0.5-1.3-0.7-2.1-0.7C231.6,71.1,230.7,72,230.7,73.8z"/>
		<path class="st5" d="M249.8,83.2h-11.9c0.2,3,2.5,4.9,5.6,4.9c1.7,0,3.3-0.6,4.3-1.9l1.1,1.2c-1.3,1.5-3.2,2.3-5.5,2.3
			c-4.4,0-7.5-3-7.5-7.2s2.9-7.2,6.9-7.2s6.9,2.9,6.9,7.2C249.8,82.7,249.8,82.9,249.8,83.2z M237.9,81.7H248
			c-0.2-2.8-2.3-4.7-5-4.7C240.2,77,238.1,79,237.9,81.7z"/>
		<path class="st5" d="M260.9,75.4v1.9c-0.2,0-0.3,0-0.5,0c-3,0-4.8,1.9-4.8,5.2v7.2h-1.9V75.5h1.8v2.8
			C256.5,76.4,258.3,75.4,260.9,75.4z"/>
		<path class="st5" d="M276.6,83.2h-11.9c0.2,3,2.5,4.9,5.6,4.9c1.7,0,3.3-0.6,4.3-1.9l1.1,1.2c-1.3,1.5-3.2,2.3-5.5,2.3
			c-4.4,0-7.5-3-7.5-7.2s2.9-7.2,6.9-7.2s6.9,2.9,6.9,7.2C276.6,82.7,276.6,82.9,276.6,83.2z M264.7,81.7h10.1
			c-0.2-2.8-2.3-4.7-5-4.7C267,77,264.9,79,264.7,81.7z"/>
		<path class="st5" d="M293.6,81.4v8.2h-1.9v-8c0-3-1.6-4.5-4.3-4.5c-3.1,0-5,1.9-5,5.1v7.5h-1.9V75.5h1.8v2.6
			c1-1.7,2.9-2.7,5.4-2.7C291.2,75.4,293.6,77.4,293.6,81.4z"/>
		<path class="st5" d="M297.4,82.6c0-4.2,3.1-7.2,7.3-7.2c2.4,0,4.4,0.9,5.6,2.8l-1.4,1c-1-1.4-2.5-2.1-4.1-2.1
			c-3.1,0-5.4,2.2-5.4,5.5s2.3,5.5,5.4,5.5c1.6,0,3.2-0.6,4.1-2.1l1.4,1c-1.1,1.8-3.2,2.8-5.6,2.8C300.5,89.8,297.4,86.8,297.4,82.6
			z"/>
		<path class="st5" d="M326.2,83.2h-11.9c0.2,3,2.5,4.9,5.6,4.9c1.7,0,3.3-0.6,4.3-1.9l1.1,1.2c-1.3,1.5-3.2,2.3-5.5,2.3
			c-4.4,0-7.5-3-7.5-7.2s2.9-7.2,6.9-7.2s6.9,2.9,6.9,7.2C326.2,82.7,326.2,82.9,326.2,83.2z M314.3,81.7h10.1
			c-0.2-2.8-2.3-4.7-5-4.7C316.6,77,314.5,79,314.3,81.7z"/>
		<path class="st5" d="M335.8,82.6c0-4.2,3.1-7.2,7.2-7.2c4.2,0,7.2,3,7.2,7.2s-3,7.2-7.2,7.2C338.8,89.8,335.8,86.8,335.8,82.6z
			 M348.2,82.6c0-3.3-2.2-5.5-5.3-5.5c-3,0-5.3,2.2-5.3,5.5s2.3,5.5,5.3,5.5C346,88.1,348.2,85.9,348.2,82.6z"/>
		<path class="st5" d="M367.2,81.4v8.2h-1.9v-8c0-3-1.6-4.5-4.3-4.5c-3,0-5,1.9-5,5.1v7.5h-1.9V75.5h1.8v2.6c1-1.7,2.9-2.7,5.4-2.7
			C364.8,75.4,367.2,77.4,367.2,81.4z"/>
	</g>
	<g class="st0">
		<path class="st1" d="M134.2,103.2v18.9h-1.9V107l-7.4,12.7H124l-7.4-12.6v15h-1.9v-18.9h1.6l8.2,14l8.1-14H134.2z"/>
		<path class="st1" d="M138.5,115c0-4.2,3.1-7.2,7.2-7.2s7.2,3,7.2,7.2s-3,7.2-7.2,7.2S138.5,119.2,138.5,115z M151,115
			c0-3.3-2.2-5.5-5.3-5.5s-5.3,2.2-5.3,5.5s2.3,5.5,5.3,5.5S151,118.3,151,115z"/>
		<path class="st1" d="M171.2,115c0,4.3-3,7.2-7.1,7.2c-2.3,0-4.3-1-5.5-2.9v2.8h-1.8v-20h1.9v8.5c1.2-1.8,3.1-2.8,5.4-2.8
			C168.2,107.8,171.2,110.7,171.2,115z M169.3,115c0-3.3-2.3-5.5-5.3-5.5s-5.3,2.2-5.3,5.5s2.3,5.5,5.3,5.5S169.3,118.3,169.3,115z"
			/>
		<path class="st1" d="M174.7,103.4c0-0.7,0.6-1.3,1.4-1.3c0.8,0,1.4,0.6,1.4,1.3c0,0.8-0.6,1.4-1.4,1.4S174.7,104.1,174.7,103.4z
			 M175.2,107.9h1.9v14.2h-1.9V107.9z"/>
		<path class="st1" d="M182.4,102h1.9v20h-1.9V102z"/>
		<path class="st1" d="M202,115.6h-11.9c0.2,3,2.5,4.9,5.6,4.9c1.7,0,3.3-0.6,4.3-1.9l1.1,1.2c-1.3,1.5-3.2,2.3-5.5,2.3
			c-4.4,0-7.5-3-7.5-7.2s2.9-7.2,6.9-7.2s6.9,2.9,6.9,7.2C202.1,115.1,202,115.3,202,115.6z M190.2,114.1h10.1
			c-0.2-2.8-2.3-4.7-5-4.7C192.4,109.4,190.4,111.4,190.2,114.1z"/>
		<path class="st1" d="M213.5,103.2h7.7c6,0,10.1,3.9,10.1,9.4s-4.1,9.4-10.1,9.4h-7.7V103.2z M221,120.3c5,0,8.3-3.2,8.3-7.7
			s-3.2-7.7-8.3-7.7h-5.6v15.4C215.4,120.3,221,120.3,221,120.3z"/>
		<path class="st1" d="M246.1,113.3v8.8h-1.8v-2.2c-0.9,1.5-2.5,2.3-4.9,2.3c-3.2,0-5.2-1.7-5.2-4.1c0-2.2,1.4-4,5.5-4h4.5v-0.9
			c0-2.4-1.4-3.8-4-3.8c-1.8,0-3.6,0.6-4.7,1.7l-0.9-1.4c1.4-1.2,3.5-1.9,5.8-1.9C244,107.8,246.1,109.6,246.1,113.3z M244.2,117.8
			v-2.3h-4.5c-2.8,0-3.6,1.1-3.6,2.5c0,1.6,1.3,2.7,3.6,2.7C241.8,120.7,243.4,119.7,244.2,117.8z"/>
		<path class="st1" d="M258.8,121.2c-0.8,0.7-1.9,1-3,1c-2.7,0-4.2-1.5-4.2-4.1v-8.6h-2.5v-1.6h2.5v-3.1h1.9v3.1h4.3v1.6h-4.3v8.5
			c0,1.7,0.9,2.6,2.5,2.6c0.8,0,1.6-0.2,2.1-0.7L258.8,121.2z"/>
		<path class="st1" d="M273,113.3v8.8h-1.8v-2.2c-0.9,1.5-2.5,2.3-4.9,2.3c-3.2,0-5.2-1.7-5.2-4.1c0-2.2,1.4-4,5.5-4h4.5v-0.9
			c0-2.4-1.4-3.8-4-3.8c-1.8,0-3.6,0.6-4.7,1.7l-0.9-1.4c1.4-1.2,3.5-1.9,5.8-1.9C270.9,107.8,273,109.6,273,113.3z M271.1,117.8
			v-2.3h-4.5c-2.8,0-3.6,1.1-3.6,2.5c0,1.6,1.3,2.7,3.6,2.7C268.7,120.7,270.3,119.7,271.1,117.8z"/>
		<path class="st1" d="M305.3,103.2v18.9h-1.9V107l-7.4,12.7h-1l-7.4-12.6v15h-1.9v-18.9h1.6l8.2,14l8.1-14H305.3z"/>
		<path class="st1" d="M321.8,113.3v8.8H320v-2.2c-0.9,1.5-2.5,2.3-4.9,2.3c-3.2,0-5.2-1.7-5.2-4.1c0-2.2,1.4-4,5.5-4h4.5v-0.9
			c0-2.4-1.4-3.8-4-3.8c-1.8,0-3.6,0.6-4.7,1.7l-0.9-1.4c1.4-1.2,3.5-1.9,5.8-1.9C319.7,107.8,321.8,109.6,321.8,113.3z
			 M319.8,117.8v-2.3h-4.5c-2.8,0-3.6,1.1-3.6,2.5c0,1.6,1.3,2.7,3.6,2.7C317.5,120.7,319.1,119.7,319.8,117.8z"/>
		<path class="st1" d="M340,113.8v8.2h-1.9v-8c0-3-1.6-4.5-4.3-4.5c-3.1,0-5,1.9-5,5.1v7.5H327v-14.2h1.8v2.6c1-1.7,2.9-2.7,5.4-2.7
			C337.7,107.8,340,109.8,340,113.8z"/>
		<path class="st1" d="M356,113.3v8.8h-1.8v-2.2c-0.9,1.5-2.5,2.3-4.9,2.3c-3.2,0-5.2-1.7-5.2-4.1c0-2.2,1.4-4,5.5-4h4.5v-0.9
			c0-2.4-1.4-3.8-4-3.8c-1.8,0-3.6,0.6-4.7,1.7l-0.9-1.4c1.4-1.2,3.5-1.9,5.8-1.9C353.9,107.8,356,109.6,356,113.3z M354.1,117.8
			v-2.3h-4.5c-2.8,0-3.6,1.1-3.6,2.5c0,1.6,1.3,2.7,3.6,2.7C351.7,120.7,353.3,119.7,354.1,117.8z"/>
		<path class="st1" d="M374.4,107.9v12.5c0,4.9-2.4,7.1-7.1,7.1c-2.6,0-5.1-0.8-6.6-2.2l1-1.5c1.3,1.2,3.4,1.9,5.6,1.9
			c3.6,0,5.2-1.6,5.2-5.2v-1.8c-1.2,1.8-3.2,2.8-5.5,2.8c-4,0-7.1-2.8-7.1-6.9s3.1-6.9,7.1-6.9c2.4,0,4.4,1,5.6,2.8v-2.7
			L374.4,107.9L374.4,107.9z M372.5,114.6c0-3.1-2.3-5.2-5.4-5.2s-5.4,2.1-5.4,5.2s2.2,5.2,5.4,5.2S372.5,117.7,372.5,114.6z"/>
		<path class="st1" d="M392.1,115.6h-11.9c0.2,3,2.5,4.9,5.6,4.9c1.7,0,3.3-0.6,4.3-1.9l1.1,1.2c-1.3,1.5-3.2,2.3-5.5,2.3
			c-4.4,0-7.5-3-7.5-7.2s2.9-7.2,6.9-7.2s6.9,2.9,6.9,7.2C392.1,115.1,392.1,115.3,392.1,115.6z M380.2,114.1h10.1
			c-0.2-2.8-2.3-4.7-5-4.7C382.5,109.4,380.5,111.4,380.2,114.1z"/>
		<path class="st1" d="M419.5,113.8v8.2h-1.9v-8c0-3-1.5-4.5-4.1-4.5c-2.9,0-4.8,1.9-4.8,5.1v7.5h-1.9v-8c0-3-1.5-4.5-4.1-4.5
			c-2.9,0-4.8,1.9-4.8,5.1v7.5H396V108h1.8v2.6c1-1.7,2.8-2.7,5.2-2.7c2.3,0,4.2,1,5,3c1-1.8,3.1-3,5.6-3
			C417.2,107.8,419.5,109.8,419.5,113.8z"/>
		<path class="st1" d="M437.1,115.6h-11.9c0.2,3,2.5,4.9,5.6,4.9c1.7,0,3.3-0.6,4.3-1.9l1.1,1.2c-1.3,1.5-3.2,2.3-5.5,2.3
			c-4.4,0-7.5-3-7.5-7.2s2.9-7.2,6.9-7.2s6.9,2.9,6.9,7.2C437.2,115.1,437.1,115.3,437.1,115.6z M425.2,114.1h10.1
			c-0.2-2.8-2.3-4.7-5-4.7C427.5,109.4,425.5,111.4,425.2,114.1z"/>
		<path class="st1" d="M454.1,113.8v8.2h-1.9v-8c0-3-1.6-4.5-4.3-4.5c-3,0-5,1.9-5,5.1v7.5H441v-14.2h1.8v2.6c1-1.7,2.9-2.7,5.4-2.7
			C451.8,107.8,454.1,109.8,454.1,113.8z"/>
		<path class="st1" d="M466.8,121.2c-0.8,0.7-1.9,1-3,1c-2.7,0-4.2-1.5-4.2-4.1v-8.6h-2.5v-1.6h2.5v-3.1h1.9v3.1h4.3v1.6h-4.3v8.5
			c0,1.7,0.9,2.6,2.5,2.6c0.8,0,1.6-0.2,2.1-0.7L466.8,121.2z"/>
	</g>
	<g class="st0">
		<path class="st5" d="M134.2,103.2v18.9h-1.9V107l-7.4,12.7H124l-7.4-12.6v15h-1.9v-18.9h1.6l8.2,14l8.1-14H134.2z"/>
		<path class="st5" d="M138.5,115c0-4.2,3.1-7.2,7.2-7.2s7.2,3,7.2,7.2s-3,7.2-7.2,7.2S138.5,119.2,138.5,115z M151,115
			c0-3.3-2.2-5.5-5.3-5.5s-5.3,2.2-5.3,5.5s2.3,5.5,5.3,5.5S151,118.3,151,115z"/>
		<path class="st5" d="M171.2,115c0,4.3-3,7.2-7.1,7.2c-2.3,0-4.3-1-5.5-2.9v2.8h-1.8v-20h1.9v8.5c1.2-1.8,3.1-2.8,5.4-2.8
			C168.2,107.8,171.2,110.7,171.2,115z M169.3,115c0-3.3-2.3-5.5-5.3-5.5s-5.3,2.2-5.3,5.5s2.3,5.5,5.3,5.5S169.3,118.3,169.3,115z"
			/>
		<path class="st5" d="M174.7,103.4c0-0.7,0.6-1.3,1.4-1.3c0.8,0,1.4,0.6,1.4,1.3c0,0.8-0.6,1.4-1.4,1.4S174.7,104.1,174.7,103.4z
			 M175.2,107.9h1.9v14.2h-1.9V107.9z"/>
		<path class="st5" d="M182.4,102h1.9v20h-1.9V102z"/>
		<path class="st5" d="M202,115.6h-11.9c0.2,3,2.5,4.9,5.6,4.9c1.7,0,3.3-0.6,4.3-1.9l1.1,1.2c-1.3,1.5-3.2,2.3-5.5,2.3
			c-4.4,0-7.5-3-7.5-7.2s2.9-7.2,6.9-7.2s6.9,2.9,6.9,7.2C202.1,115.1,202,115.3,202,115.6z M190.2,114.1h10.1
			c-0.2-2.8-2.3-4.7-5-4.7C192.4,109.4,190.4,111.4,190.2,114.1z"/>
		<path class="st5" d="M213.5,103.2h7.7c6,0,10.1,3.9,10.1,9.4s-4.1,9.4-10.1,9.4h-7.7V103.2z M221,120.3c5,0,8.3-3.2,8.3-7.7
			s-3.2-7.7-8.3-7.7h-5.6v15.4C215.4,120.3,221,120.3,221,120.3z"/>
		<path class="st5" d="M246.1,113.3v8.8h-1.8v-2.2c-0.9,1.5-2.5,2.3-4.9,2.3c-3.2,0-5.2-1.7-5.2-4.1c0-2.2,1.4-4,5.5-4h4.5v-0.9
			c0-2.4-1.4-3.8-4-3.8c-1.8,0-3.6,0.6-4.7,1.7l-0.9-1.4c1.4-1.2,3.5-1.9,5.8-1.9C244,107.8,246.1,109.6,246.1,113.3z M244.2,117.8
			v-2.3h-4.5c-2.8,0-3.6,1.1-3.6,2.5c0,1.6,1.3,2.7,3.6,2.7C241.8,120.7,243.4,119.7,244.2,117.8z"/>
		<path class="st5" d="M258.8,121.2c-0.8,0.7-1.9,1-3,1c-2.7,0-4.2-1.5-4.2-4.1v-8.6h-2.5v-1.6h2.5v-3.1h1.9v3.1h4.3v1.6h-4.3v8.5
			c0,1.7,0.9,2.6,2.5,2.6c0.8,0,1.6-0.2,2.1-0.7L258.8,121.2z"/>
		<path class="st5" d="M273,113.3v8.8h-1.8v-2.2c-0.9,1.5-2.5,2.3-4.9,2.3c-3.2,0-5.2-1.7-5.2-4.1c0-2.2,1.4-4,5.5-4h4.5v-0.9
			c0-2.4-1.4-3.8-4-3.8c-1.8,0-3.6,0.6-4.7,1.7l-0.9-1.4c1.4-1.2,3.5-1.9,5.8-1.9C270.9,107.8,273,109.6,273,113.3z M271.1,117.8
			v-2.3h-4.5c-2.8,0-3.6,1.1-3.6,2.5c0,1.6,1.3,2.7,3.6,2.7C268.7,120.7,270.3,119.7,271.1,117.8z"/>
		<path class="st5" d="M305.3,103.2v18.9h-1.9V107l-7.4,12.7h-1l-7.4-12.6v15h-1.9v-18.9h1.6l8.2,14l8.1-14H305.3z"/>
		<path class="st5" d="M321.8,113.3v8.8H320v-2.2c-0.9,1.5-2.5,2.3-4.9,2.3c-3.2,0-5.2-1.7-5.2-4.1c0-2.2,1.4-4,5.5-4h4.5v-0.9
			c0-2.4-1.4-3.8-4-3.8c-1.8,0-3.6,0.6-4.7,1.7l-0.9-1.4c1.4-1.2,3.5-1.9,5.8-1.9C319.7,107.8,321.8,109.6,321.8,113.3z
			 M319.8,117.8v-2.3h-4.5c-2.8,0-3.6,1.1-3.6,2.5c0,1.6,1.3,2.7,3.6,2.7C317.5,120.7,319.1,119.7,319.8,117.8z"/>
		<path class="st5" d="M340,113.8v8.2h-1.9v-8c0-3-1.6-4.5-4.3-4.5c-3.1,0-5,1.9-5,5.1v7.5H327v-14.2h1.8v2.6c1-1.7,2.9-2.7,5.4-2.7
			C337.7,107.8,340,109.8,340,113.8z"/>
		<path class="st5" d="M356,113.3v8.8h-1.8v-2.2c-0.9,1.5-2.5,2.3-4.9,2.3c-3.2,0-5.2-1.7-5.2-4.1c0-2.2,1.4-4,5.5-4h4.5v-0.9
			c0-2.4-1.4-3.8-4-3.8c-1.8,0-3.6,0.6-4.7,1.7l-0.9-1.4c1.4-1.2,3.5-1.9,5.8-1.9C353.9,107.8,356,109.6,356,113.3z M354.1,117.8
			v-2.3h-4.5c-2.8,0-3.6,1.1-3.6,2.5c0,1.6,1.3,2.7,3.6,2.7C351.7,120.7,353.3,119.7,354.1,117.8z"/>
		<path class="st5" d="M374.4,107.9v12.5c0,4.9-2.4,7.1-7.1,7.1c-2.6,0-5.1-0.8-6.6-2.2l1-1.5c1.3,1.2,3.4,1.9,5.6,1.9
			c3.6,0,5.2-1.6,5.2-5.2v-1.8c-1.2,1.8-3.2,2.8-5.5,2.8c-4,0-7.1-2.8-7.1-6.9s3.1-6.9,7.1-6.9c2.4,0,4.4,1,5.6,2.8v-2.7
			L374.4,107.9L374.4,107.9z M372.5,114.6c0-3.1-2.3-5.2-5.4-5.2s-5.4,2.1-5.4,5.2s2.2,5.2,5.4,5.2S372.5,117.7,372.5,114.6z"/>
		<path class="st5" d="M392.1,115.6h-11.9c0.2,3,2.5,4.9,5.6,4.9c1.7,0,3.3-0.6,4.3-1.9l1.1,1.2c-1.3,1.5-3.2,2.3-5.5,2.3
			c-4.4,0-7.5-3-7.5-7.2s2.9-7.2,6.9-7.2s6.9,2.9,6.9,7.2C392.1,115.1,392.1,115.3,392.1,115.6z M380.2,114.1h10.1
			c-0.2-2.8-2.3-4.7-5-4.7C382.5,109.4,380.5,111.4,380.2,114.1z"/>
		<path class="st5" d="M419.5,113.8v8.2h-1.9v-8c0-3-1.5-4.5-4.1-4.5c-2.9,0-4.8,1.9-4.8,5.1v7.5h-1.9v-8c0-3-1.5-4.5-4.1-4.5
			c-2.9,0-4.8,1.9-4.8,5.1v7.5H396V108h1.8v2.6c1-1.7,2.8-2.7,5.2-2.7c2.3,0,4.2,1,5,3c1-1.8,3.1-3,5.6-3
			C417.2,107.8,419.5,109.8,419.5,113.8z"/>
		<path class="st5" d="M437.1,115.6h-11.9c0.2,3,2.5,4.9,5.6,4.9c1.7,0,3.3-0.6,4.3-1.9l1.1,1.2c-1.3,1.5-3.2,2.3-5.5,2.3
			c-4.4,0-7.5-3-7.5-7.2s2.9-7.2,6.9-7.2s6.9,2.9,6.9,7.2C437.2,115.1,437.1,115.3,437.1,115.6z M425.2,114.1h10.1
			c-0.2-2.8-2.3-4.7-5-4.7C427.5,109.4,425.5,111.4,425.2,114.1z"/>
		<path class="st5" d="M454.1,113.8v8.2h-1.9v-8c0-3-1.6-4.5-4.3-4.5c-3,0-5,1.9-5,5.1v7.5H441v-14.2h1.8v2.6c1-1.7,2.9-2.7,5.4-2.7
			C451.8,107.8,454.1,109.8,454.1,113.8z"/>
		<path class="st5" d="M466.8,121.2c-0.8,0.7-1.9,1-3,1c-2.7,0-4.2-1.5-4.2-4.1v-8.6h-2.5v-1.6h2.5v-3.1h1.9v3.1h4.3v1.6h-4.3v8.5
			c0,1.7,0.9,2.6,2.5,2.6c0.8,0,1.6-0.2,2.1-0.7L466.8,121.2z"/>
	</g>
	<g>
		<path class="st3" d="M102.8,118.9v-4.8c-0.5,0-0.8-0.1-1.1,0c-1.2,0.2-1.6-0.4-1.9-1.5c-1.3-4.7-2.6-9.4-3.9-14.1
			c-1-3.7-2-7.3-3.1-11c3.3-1.9,5.1-4.7,4.9-8.4c-0.2-3.7-2.3-6.3-5.7-7.8c1-5.5,2-11,3-16.5c0.1-0.7,0.5-0.9,1.1-1.1
			c5.1-1.6,8.1-6.8,7-11.8c-1.6-7.1-9.2-10.4-15.5-6.6c-0.5,0.3-0.8,0.4-1.3,0c-6.4-4.4-12.9-8.8-19.3-13.2
			c-0.5-0.3-0.5-0.6-0.4-1.2c0.2-1.6,0.5-3.2,0.2-4.8c-1-5.5-6.3-8.8-11.8-7.5c-5.2,1.2-8.5,6.7-7,12c0.2,0.8,0.1,1.1-0.5,1.5
			c-6.4,4.3-12.7,8.7-19,13c-0.5,0.4-0.9,0.4-1.5,0c-2.3-1.4-4.7-1.8-7.3-1.3c-4.6,1-7.8,4.7-8.2,9.4c-0.3,4.6,2.4,8.8,6.9,10.3
			c0.7,0.2,1,0.5,1.1,1.2c0.9,5.2,1.8,10.3,2.8,15.5c0.1,0.7,0,1-0.7,1.4c-5.9,2.8-6.9,10.3-2.1,14.6c0.5,0.5,0.6,0.8,0.5,1.5
			c-2.3,8-4.5,16-6.7,24.1c-0.6,2.2-0.6,2.2-2.8,2.3c-0.1,0-0.3,0.1-0.5,0.2v4.7H6v4.6h101.3v-4.7
			C107.3,118.9,102.8,118.9,102.8,118.9z M29.7,50.4c6.3,4.5,12.5,9.1,19,13.7c-0.7,0.6-1.3,1.3-1.9,1.6c-4.8,2.7-9.7,5.4-14.7,8.2
			c-1.6-1.8-3.6-2.8-6-3.2c-0.2,0-0.6-0.3-0.6-0.5c-1-5.3-1.9-10.7-2.9-16.1C25.5,53.8,27.8,52.5,29.7,50.4z M40.3,54.2
			c0-0.1,0.1-0.2,0.1-0.2c2.7,1.2,5.4,2.4,8.2,3.7c-0.2,0.8-0.4,1.4-0.6,2.2C45.4,57.9,42.8,56.1,40.3,54.2z M49,111.7
			c-1.8,0.6-3.7,1.3-5.5,1.9c-0.7,0.2-0.9,0.5-0.8,1.2c0,1.3,0,2.6,0,4H21.6v-4.7c-0.6,0-1.2-0.1-1.9-0.2c1.8-8.5,3.5-17,5.2-25.7
			c2.2,0,4.2-0.6,5.9-1.9c0.2-0.1,0.7-0.1,0.9,0c5.6,4.3,11.1,8.5,16.6,12.8c-0.3,1.3-0.7,2.4-0.9,3.6c-0.3,2.6,0.5,4.9,2.1,6.9
			C50.5,110.9,50.4,111.3,49,111.7z M52.6,81.6c-0.4,4.5-0.7,9-1.2,13.4c-0.1,0.6-0.5,1.3-0.9,2c-2.5-1.9-4.7-3.6-6.9-5.4
			c-3.2-2.5-6.4-5-9.6-7.4c-0.6-0.5-0.9-0.8-0.5-1.6c0.8-1.7,0.8-3.5,0.4-5.4c-0.1-0.3,0.1-0.9,0.3-1.1c3.9-2.2,7.9-4.4,11.9-6.6
			c0.1,0,0.1,0,0.2,0c0.2,1.1,0.2,2.3,0.5,3.4c0.7,2.9,2.3,5.2,4.9,6.7C52.5,80.2,52.7,80.7,52.6,81.6z M54.8,93.8
			c0,0.4-0.6,0.8-0.9,1.1c-0.2-0.1-0.3-0.2-0.5-0.2c0.4-4.4,0.8-8.8,1.2-13.1c0,0,0.1,0,0.2,0C54.8,85.7,54.8,89.8,54.8,93.8z
			 M55.7,49.2c-1.3,0.7-2.8,1.2-3.8,2C50.8,52,50,53.3,49,54.5c-5.7-2.5-11.5-5.2-17.4-7.8c0.8-3.2,0.2-6.1-1.6-8.9
			c6.6-4.5,13.2-9,19.9-13.6c1.6,1.7,3.5,2.9,5.8,3.3V49.2z M92,54.1c-1,5.5-2,11-3,16.6c-2.1,0.2-4,0.8-5.7,2.1
			c-0.2,0.1-0.6,0.1-0.9,0c-5.3-2.9-10.6-5.9-16.1-8.9c6.3-4.6,12.5-9,18.7-13.5C86.9,52.5,89.2,53.7,92,54.1z M65.8,60.5
			c-0.1-0.1-0.2-0.2-0.2-0.2c-0.2-1.9-0.2-1.9,1.5-2.7c2-0.9,3.9-1.8,5.9-2.7c0,0.1,0.1,0.1,0.1,0.2C70.8,56.9,68.3,58.7,65.8,60.5z
			 M58.2,93.3c0-3.6,0-7.1,0-10.7c0-0.3,0-0.7,0-1c0.1,0,0.2,0,0.2,0c0.4,4.2,0.8,8.5,1.2,12.8C58.2,94.5,58.2,94.5,58.2,93.3z
			 M58.8,48.7c0-6.8,0-13.5,0-20.2c0-0.7,0.2-0.9,0.9-1.1c2-0.4,3.7-1.5,5.2-3.1c6.7,4.6,13.3,9.1,19.7,13.5c-0.6,1.6-1.2,3-1.5,4.5
			c-0.2,1.5-0.1,3.1-0.1,4.9c-5.9,2.6-12,5.4-18.2,8.2c-0.2-0.3-0.3-0.5-0.4-0.7c-0.9-2.2-2.5-3.8-4.8-4.6
			C59,49.7,58.8,49.4,58.8,48.7z M61.4,93.3c-0.2-3.7-0.6-7.5-0.9-11.2c-0.1-0.6,0-1,0.8-1.3c4.7-1.8,7.4-6,7.1-11.1
			c0-0.3,0-0.7,0-1.2c4.3,2.4,8.5,4.7,12.7,7.1c-1.2,2.8-1.3,5.5,0.1,8.3c-5.8,4.5-11.6,9-17.4,13.5c-0.2-0.2-0.3-0.4-0.5-0.4
			C61.9,96.1,61.5,94.8,61.4,93.3z M93.1,114c-0.6,0-1.1,0.1-1.8,0.1v4.7H71.5c0-1.2-0.1-2.5,0-3.7c0.1-1-0.3-1.4-1.2-1.7
			c-2.4-0.8-4.7-1.6-7.2-2.5c0.3-0.3,0.4-0.5,0.6-0.7c2.5-2.8,3.3-6.1,2-9.7c-0.2-0.5-0.2-0.9,0.3-1.2c5.6-4.3,11.2-8.6,16.7-12.9
			l0.1-0.1l0,0c1.7,0.7,3.2,1.2,4.6,1.8c0.3,0.1,0.6,0.5,0.6,0.8c1.7,8,3.3,16.1,5,24.2C93.1,113.4,93.1,113.7,93.1,114z"/>
	</g>
</g>
</svg>
